# File created by Blade
# Date/Time:  Tue Sep 30 19:15:05 2014
# Frame Rate: 120.000 fps
#------------------------------------------------------
:FULLY-SPECIFIED
:DEGREES
2477
root -0.517399 32.462734 -4.173092 18.038594 -45.273922 -19.272064
Spine 0.952949 5.953904 -2.742290
Head -11.642358 -12.875267 22.667888
LeftShoulder 18.328472 6.727924 24.666220
LeftArm -15.100154 -17.123444 -74.558480
LeftForeArm -140.780772 11.604936 -13.846292
LeftHand 0.000041 38.089471 9.752761
LeftHandThumb1 30.357831 13.997178 22.438692
RightShoulder -14.971101 -18.133740 -15.180933
RightArm -3.511676 -19.400446 82.950208
RightForeArm 27.773306 -11.349054 20.488655
RightHand 0.000038 -9.658270 12.453936
RightHandThumb1 30.482666 -12.916435 -20.793814
LeftUpLeg -19.820989 19.608724 1.970021
LeftLeg 26.294399 -0.000000 0.000000
LeftFoot -23.240694 36.529108 -2.471457
LeftToeBase 4.188700 0.000000 0.000000
RightUpLeg -110.409037 -10.145360 35.444340
RightLeg 102.603600 -0.000000 -0.000000
RightFoot 31.224392 -20.950088 -2.356178
RightToeBase 17.724001 -0.000000 -0.000000
2478
root -0.523799 32.468734 -4.178191 17.977551 -45.075988 -19.228598
Spine 0.968526 6.012883 -2.706863
Head -11.651507 -13.082335 22.728817
LeftShoulder 18.267846 6.661389 24.674079
LeftArm -14.912642 -17.139797 -74.661979
LeftForeArm -140.880578 11.658162 -13.954121
LeftHand -0.000031 38.099624 9.843499
LeftHandThumb1 30.357831 13.997178 22.438692
RightShoulder -14.908312 -18.181589 -15.182376
RightArm -3.584989 -19.479505 82.921519
RightForeArm 27.718976 -11.215193 20.312508
RightHand -0.000032 -9.739971 12.506276
RightHandThumb1 30.482666 -12.916435 -20.793814
LeftUpLeg -19.786022 19.514775 2.003032
LeftLeg 26.225500 0.000000 0.000000
LeftFoot -23.179230 36.447404 -2.406238
LeftToeBase 4.216800 -0.000000 -0.000000
RightUpLeg -110.506184 -10.248578 35.488953
RightLeg 102.538902 -0.000000 -0.000000
RightFoot 31.282429 -21.010331 -2.525202
RightToeBase 17.796700 -0.000000 0.000000
2479
root -0.529899 32.473533 -4.181492 17.918600 -44.934213 -19.188962
Spine 0.983183 6.109902 -2.678320
Head -11.664056 -13.242174 22.765194
LeftShoulder 18.257457 6.668157 24.666817
LeftArm -14.741380 -17.230833 -74.756972
LeftForeArm -140.932733 11.634424 -13.952107
LeftHand -0.000016 38.088260 9.879622
LeftHandThumb1 30.357831 13.997178 22.438692
RightShoulder -14.842801 -18.239066 -15.167683
RightArm -3.730704 -19.485082 82.890257
RightForeArm 27.517316 -11.140099 20.348644
RightHand -0.000004 -9.687828 12.577058
RightHandThumb1 30.482666 -12.916435 -20.793814
LeftUpLeg -19.738014 19.455575 2.033596
LeftLeg 26.148100 0.000000 0.000000
LeftFoot -23.120638 36.370343 -2.392105
LeftToeBase 4.156400 0.000000 0.000000
RightUpLeg -110.585368 -10.316581 35.573516
RightLeg 102.536697 -0.000000 -0.000000
RightFoot 31.242799 -21.230467 -2.302051
RightToeBase 17.351500 -0.000000 -0.000000
2480
root -0.532299 32.477733 -4.186192 17.898403 -44.810278 -19.168023
Spine 0.974371 6.195225 -2.621274
Head -11.668956 -13.369623 22.754478
LeftShoulder 18.249366 6.638703 24.632057
LeftArm -14.731454 -17.230982 -74.830299
LeftForeArm -141.030218 11.663992 -14.032515
LeftHand -0.000015 38.092887 9.651387
LeftHandThumb1 30.357831 13.997178 22.438692
RightShoulder -14.806514 -18.280537 -15.165348
RightArm -3.779317 -19.526602 82.858338
RightForeArm 27.338541 -11.093692 20.414295
RightHand -0.000006 -9.605399 12.522772
RightHandThumb1 30.482666 -12.916435 -20.793814
LeftUpLeg -19.730289 19.376506 2.066786
LeftLeg 26.110500 -0.000000 0.000000
LeftFoot -23.024767 36.283568 -2.291650
LeftToeBase 4.115600 -0.000000 -0.000000
RightUpLeg -110.675492 -10.351551 35.723836
RightLeg 102.585503 -0.000000 0.000000
RightFoot 31.016962 -21.229032 -2.200626
RightToeBase 17.547600 -0.000000 0.000000
2481
root -0.534699 32.478233 -4.190891 17.903288 -44.703160 -19.152222
Spine 0.938437 6.271671 -2.563717
Head -11.683461 -13.450548 22.731104
LeftShoulder 18.268408 6.669227 24.622712
LeftArm -14.666651 -17.211696 -74.884264
LeftForeArm -141.109764 11.692622 -14.103543
LeftHand -0.000108 38.004996 9.562214
LeftHandThumb1 30.357831 13.997178 22.438692
RightShoulder -14.779080 -18.324175 -15.180881
RightArm -3.752400 -19.558299 82.822036
RightForeArm 27.153498 -11.027181 20.451713
RightHand 0.000011 -9.557720 12.461870
RightHandThumb1 30.482666 -12.916435 -20.793814
LeftUpLeg -19.758455 19.290025 2.060105
LeftLeg 26.056601 -0.000000 -0.000000
LeftFoot -23.010495 36.407279 -2.251445
LeftToeBase 4.190100 0.000000 0.000000
RightUpLeg -110.798134 -10.348061 35.936140
RightLeg 102.628403 -0.000000 0.000000
RightFoot 31.017699 -21.173623 -2.237567
RightToeBase 17.494600 -0.000000 -0.000000
2482
root -0.540799 32.478737 -4.190092 17.848428 -44.600922 -19.040824
Spine 0.880796 6.255610 -2.610359
Head -11.697969 -13.467359 22.765049
LeftShoulder 18.369709 6.862597 24.611810
LeftArm -14.762840 -17.472533 -74.913692
LeftForeArm -141.148739 11.617023 -14.035927
LeftHand 0.000009 38.391175 9.226409
LeftHandThumb1 30.357831 13.997178 22.438692
RightShoulder -14.790696 -18.342302 -15.150232
RightArm -3.561718 -19.621501 82.765447
RightForeArm 27.032118 -10.924189 20.375975
RightHand -0.000007 -9.613699 12.380208
RightHandThumb1 30.482666 -12.916435 -20.793814
LeftUpLeg -19.771756 19.306935 2.001054
LeftLeg 26.014700 -0.000000 0.000000
LeftFoot -23.001225 36.239511 -2.252776
LeftToeBase 4.154800 -0.000000 -0.000000
RightUpLeg -110.982850 -10.357260 36.071562
RightLeg 102.702301 -0.000000 -0.000000
RightFoot 31.124865 -21.240817 -2.008322
RightToeBase 17.530800 0.000000 0.000000
2483
root -0.546499 32.477634 -4.190491 17.770094 -44.538498 -18.961718
Spine 0.875788 6.299777 -2.647088
Head -11.683650 -13.496993 22.825860
LeftShoulder 18.463419 6.934894 24.636218
LeftArm -14.840566 -17.496437 -74.927042
LeftForeArm -141.233282 11.618001 -14.077835
LeftHand -0.000063 38.407029 8.997686
LeftHandThumb1 30.357831 13.997178 22.438692
RightShoulder -14.800005 -18.335796 -15.088759
RightArm -3.534172 -19.668046 82.715905
RightForeArm 26.902843 -10.881388 20.407866
RightHand -0.000028 -9.657118 12.472744
RightHandThumb1 30.482666 -12.916435 -20.793814
LeftUpLeg -19.743773 19.311159 1.969750
LeftLeg 25.990601 -0.000000 0.000000
LeftFoot -22.986172 36.155186 -2.240044
LeftToeBase 4.094600 -0.000000 -0.000000
RightUpLeg -111.101746 -10.327816 36.227076
RightLeg 102.749199 -0.000000 0.000000
RightFoot 31.348202 -21.365030 -1.853212
RightToeBase 17.418699 0.000000 0.000000
2484
root -0.549899 32.475235 -4.191591 17.703569 -44.514126 -18.935610
Spine 0.908576 6.420241 -2.624781
Head -11.676858 -13.570463 22.832974
LeftShoulder 18.325448 6.891082 24.641726
LeftArm -14.886186 -17.229442 -74.953225
LeftForeArm -141.302950 11.527402 -14.007289
LeftHand -0.000031 38.316775 9.294866
LeftHandThumb1 30.357831 13.997178 22.438692
RightShoulder -14.821361 -18.350773 -15.047563
RightArm -3.418701 -19.702375 82.645388
RightForeArm 26.766268 -10.807147 20.392022
RightHand -0.000032 -9.753839 12.388233
RightHandThumb1 30.482666 -12.916435 -20.793814
LeftUpLeg -19.704930 19.338041 1.974351
LeftLeg 26.006701 -0.000000 -0.000000
LeftFoot -22.984454 36.096133 -2.199235
LeftToeBase 4.156500 -0.000000 0.000000
RightUpLeg -111.149710 -10.296194 36.419944
RightLeg 102.824699 -0.000000 -0.000000
RightFoot 31.410772 -21.297942 -1.629069
RightToeBase 17.018000 -0.000000 0.000000
2485
root -0.554299 32.470337 -4.191191 17.610292 -44.491423 -18.857580
Spine 0.917857 6.503319 -2.644845
Head -11.650628 -13.637848 22.829332
LeftShoulder 18.307835 6.914936 24.652468
LeftArm -14.987115 -17.110048 -74.935549
LeftForeArm -141.348205 11.503930 -14.002018
LeftHand -0.000090 38.292843 9.256530
LeftHandThumb1 30.357831 13.997178 22.438692
RightShoulder -14.844988 -18.366891 -15.016503
RightArm -3.606564 -19.697769 82.645147
RightForeArm 26.520598 -10.826021 20.625564
RightHand -0.000011 -9.774583 12.556133
RightHandThumb1 30.482666 -12.916435 -20.793814
LeftUpLeg -19.681547 19.370506 1.936853
LeftLeg 26.034500 0.000000 0.000000
LeftFoot -22.994636 36.024398 -2.183240
LeftToeBase 4.156800 0.000000 0.000000
RightUpLeg -111.223307 -10.255688 36.563214
RightLeg 102.898201 -0.000000 -0.000000
RightFoot 31.505026 -21.162749 -1.456253
RightToeBase 17.007799 0.000000 0.000000
2486
root -0.559799 32.464233 -4.188791 17.502874 -44.512094 -18.817077
Spine 0.977973 6.620200 -2.632494
Head -11.624122 -13.708147 22.776887
LeftShoulder 18.607137 7.045931 24.627978
LeftArm -15.120626 -17.415860 -74.847504
LeftForeArm -141.330095 11.466551 -13.950202
LeftHand -0.000097 38.339363 9.252923
LeftHandThumb1 30.357831 13.997178 22.438692
RightShoulder -14.880821 -18.379957 -14.992376
RightArm -3.626659 -19.712590 82.629088
RightForeArm 26.355127 -10.793652 20.706643
RightHand 0.000016 -9.732623 12.549862
RightHandThumb1 30.482666 -12.916435 -20.793814
LeftUpLeg -19.609934 19.347922 1.956217
LeftLeg 26.111200 0.000000 0.000000
LeftFoot -23.018125 35.973776 -2.166605
LeftToeBase 4.174700 -0.000000 -0.000000
RightUpLeg -111.218582 -10.194120 36.697041
RightLeg 102.968399 0.000000 0.000000
RightFoot 31.571825 -21.061700 -1.309183
RightToeBase 16.864500 -0.000000 -0.000000
